<svg xmlns="http://www.w3.org/2000/svg" width="1200" height="800" viewBox="0 0 1200 800">
<defs>
  <linearGradient id="bg" x1="0" y1="0" x2="1" y2="1">
    <stop offset="0%" stop-color="#05070d"/>
    <stop offset="100%" stop-color="#0b0f1e"/>
  </linearGradient>
  <linearGradient id="accent" x1="0" y1="0" x2="1" y2="0">
    <stop offset="0%" stop-color="#0080ff"/>
    <stop offset="100%" stop-color="#00d4ff"/>
  </linearGradient>
  <filter id="glow"><feGaussianBlur stdDeviation="8" result="b"/><feMerge><feMergeNode in="b"/><feMergeNode in="SourceGraphic"/></feMerge></filter>
</defs>
<rect width="1200" height="800" fill="url(#bg)"/>
<rect x="0" y="0" width="1200" height="52" fill="#0d1220"/>
<circle cx="30" cy="26" r="7" fill="#ff5f56"/>
<circle cx="54" cy="26" r="7" fill="#ffbd2e"/>
<circle cx="78" cy="26" r="7" fill="#27c93f"/>
<rect x="120" y="14" width="360" height="24" rx="12" fill="#0b0f1e" stroke="#0080ff" stroke-opacity="0.4"/>
<text x="300" y="30" font-family="monospace" font-size="13" fill="#8b93a7" text-anchor="middle">jovarynstudio.com/agence-immobiliere</text>
<rect x="0" y="52" width="1200" height="400" rx="0" fill="#0b0f1e" opacity="1"/><rect x="60" y="90" width="1080" height="320" rx="14" fill="#0080ff" opacity="0.12"/><rect x="60" y="90" width="1080" height="320" rx="14" fill="none" opacity="1" stroke="#00d4ff" stroke-width="1.5"/><rect x="60" y="460" width="340" height="260" rx="14" fill="#101627" opacity="1"/><rect x="430" y="460" width="340" height="260" rx="14" fill="#101627" opacity="1"/><rect x="800" y="460" width="340" height="260" rx="14" fill="#101627" opacity="1"/><rect x="90" y="660" width="120" height="26" rx="6" fill="#00d4ff" opacity="1"/><rect x="460" y="660" width="120" height="26" rx="6" fill="#00d4ff" opacity="1"/><rect x="830" y="660" width="120" height="26" rx="6" fill="#00d4ff" opacity="1"/><rect x="0" y="0" width="1200" height="800" fill="none" stroke="#0080ff" stroke-opacity="0.25" stroke-width="2"/></svg>