<svg xmlns="http://www.w3.org/2000/svg" width="1200" height="800" viewBox="0 0 1200 800">
<defs>
  <linearGradient id="bg" x1="0" y1="0" x2="1" y2="1">
    <stop offset="0%" stop-color="#05070d"/>
    <stop offset="100%" stop-color="#0b0f1e"/>
  </linearGradient>
  <linearGradient id="accent" x1="0" y1="0" x2="1" y2="0">
    <stop offset="0%" stop-color="#0080ff"/>
    <stop offset="100%" stop-color="#00d4ff"/>
  </linearGradient>
  <filter id="glow"><feGaussianBlur stdDeviation="8" result="b"/><feMerge><feMergeNode in="b"/><feMergeNode in="SourceGraphic"/></feMerge></filter>
</defs>
<rect width="1200" height="800" fill="url(#bg)"/>
<rect x="0" y="0" width="1200" height="52" fill="#0d1220"/>
<circle cx="30" cy="26" r="7" fill="#ff5f56"/>
<circle cx="54" cy="26" r="7" fill="#ffbd2e"/>
<circle cx="78" cy="26" r="7" fill="#27c93f"/>
<rect x="120" y="14" width="360" height="24" rx="12" fill="#0b0f1e" stroke="#00d4ff" stroke-opacity="0.4"/>
<text x="300" y="30" font-family="monospace" font-size="13" fill="#8b93a7" text-anchor="middle">jovarynstudio.com/saas-analytics</text>
<rect x="0" y="52" width="260" height="748" rx="0" fill="#080b14" opacity="1"/><rect x="30" y="90" width="200" height="30" rx="6" fill="#00d4ff" opacity="0.8"/><rect x="30" y="150" width="200" height="20" rx="4" fill="#8b93a7" opacity="0.5"/><rect x="30" y="190" width="200" height="20" rx="4" fill="#8b93a7" opacity="0.5"/><rect x="30" y="230" width="200" height="20" rx="4" fill="#8b93a7" opacity="0.5"/><rect x="300" y="90" width="860" height="140" rx="14" fill="#101627" opacity="1"/><rect x="330" y="120" width="250" height="80" rx="10" fill="#0080ff" opacity="0.25"/><rect x="610" y="120" width="250" height="80" rx="10" fill="#00d4ff" opacity="0.15"/><rect x="890" y="120" width="250" height="80" rx="10" fill="#0080ff" opacity="0.25"/><rect x="300" y="260" width="860" height="340" rx="14" fill="#101627" opacity="1"/><polyline points="340,540 420,460 500,500 580,400 660,440 740,340 820,380 900,300 980,340 1060,280" fill="none" stroke="#00d4ff" stroke-width="4" filter="url(#glow)"/><rect x="300" y="630" width="410" height="150" rx="14" fill="#101627" opacity="1"/><rect x="730" y="630" width="430" height="150" rx="14" fill="#101627" opacity="1"/><rect x="0" y="0" width="1200" height="800" fill="none" stroke="#00d4ff" stroke-opacity="0.25" stroke-width="2"/></svg>