<svg xmlns="http://www.w3.org/2000/svg" width="1200" height="800" viewBox="0 0 1200 800">
<defs>
  <linearGradient id="bg" x1="0" y1="0" x2="1" y2="1">
    <stop offset="0%" stop-color="#05070d"/>
    <stop offset="100%" stop-color="#0b0f1e"/>
  </linearGradient>
  <linearGradient id="accent" x1="0" y1="0" x2="1" y2="0">
    <stop offset="0%" stop-color="#0080ff"/>
    <stop offset="100%" stop-color="#00d4ff"/>
  </linearGradient>
  <filter id="glow"><feGaussianBlur stdDeviation="8" result="b"/><feMerge><feMergeNode in="b"/><feMergeNode in="SourceGraphic"/></feMerge></filter>
</defs>
<rect width="1200" height="800" fill="url(#bg)"/>
<rect x="0" y="0" width="1200" height="52" fill="#0d1220"/>
<circle cx="30" cy="26" r="7" fill="#ff5f56"/>
<circle cx="54" cy="26" r="7" fill="#ffbd2e"/>
<circle cx="78" cy="26" r="7" fill="#27c93f"/>
<rect x="120" y="14" width="360" height="24" rx="12" fill="#0b0f1e" stroke="#00d4ff" stroke-opacity="0.4"/>
<text x="300" y="30" font-family="monospace" font-size="13" fill="#8b93a7" text-anchor="middle">jovarynstudio.com/cabinet-sante</text>
<rect x="60" y="90" width="500" height="540" rx="18" fill="#101627" opacity="1"/><rect x="90" y="130" width="440" height="200" rx="12" fill="#00d4ff" opacity="0.2"/><rect x="90" y="360" width="440" height="26" rx="6" fill="#8b93a7" opacity="0.6"/><rect x="90" y="400" width="300" height="20" rx="4" fill="#8b93a7" opacity="0.4"/><rect x="90" y="440" width="200" height="44" rx="10" fill="#0080ff" opacity="1"/><rect x="600" y="90" width="540" height="540" rx="18" fill="#101627" opacity="1"/><circle cx="870" cy="260" r="110" fill="none" stroke="#00d4ff" stroke-width="6" opacity="0.6" filter="url(#glow)"/><circle cx="870" cy="260" r="60" fill="#0080ff" opacity="0.25"/><rect x="650" y="420" width="420" height="26" rx="6" fill="#8b93a7" opacity="0.5"/><rect x="650" y="460" width="420" height="26" rx="6" fill="#8b93a7" opacity="0.3"/><rect x="0" y="0" width="1200" height="800" fill="none" stroke="#00d4ff" stroke-opacity="0.25" stroke-width="2"/></svg>